<svg width="151" height="114" viewBox="0 0 151 114" fill="none" xmlns="http://www.w3.org/2000/svg">
<path d="M16.176 104.176C16.176 105.63 16.3834 106.72 16.7982 107.446C17.2129 108.069 17.6277 108.432 18.0425 108.536C18.6646 108.848 19.3905 108.848 20.22 108.536V112.584H0V108.536C0.933232 108.848 1.86646 108.848 2.79969 108.536C3.42185 108.432 4.044 108.069 4.66616 107.446C5.28831 106.72 5.59939 105.63 5.59939 104.176V15.8912C5.59939 14.3341 5.28831 13.2442 4.66616 12.6213C4.044 11.9985 3.42185 11.5833 2.79969 11.3757C1.86646 11.0643 0.933232 11.0643 0 11.3757V7.48304C1.97016 7.37924 3.83662 7.06782 5.59939 6.5488C6.94739 6.02978 8.1917 5.40696 9.33231 4.68034C10.5766 3.84991 11.1988 2.75996 11.1988 1.41051H16.176V9.81863V104.176Z" fill="url(#paint0_linear)"/>
<path d="M72.6535 28.3476C72.9646 31.877 73.172 35.9772 73.2757 40.6484C73.4831 45.2158 73.5349 49.9907 73.4312 54.9733C73.4312 59.9559 73.3275 64.9385 73.1201 69.9211C72.9128 74.7999 72.5498 79.2115 72.0314 83.1561C71.824 84.2979 71.4611 85.9069 70.9426 87.983C70.5278 89.9552 69.8538 92.1351 68.9206 94.5226C68.0911 96.9101 66.9504 99.3495 65.4988 101.841C64.1508 104.228 62.4917 106.408 60.5215 108.38C58.5514 110.249 56.2701 111.65 53.6778 112.584C51.0855 113.623 48.1821 114.09 44.9677 113.986C41.7532 113.674 39.0572 112.688 36.8797 111.027C34.8058 109.263 33.1986 107.239 32.058 104.955C30.9173 102.567 30.2433 100.076 30.036 97.481C29.9323 94.7821 30.2433 92.3427 30.9692 90.1628C31.695 87.8792 32.8875 86.0107 34.5466 84.5574C36.2057 83.0004 38.1758 82.2218 40.457 82.2218C42.5309 82.2218 44.3455 83.0523 45.9009 84.7131C47.4563 86.2702 48.234 88.1387 48.234 90.3186C48.234 92.187 47.6637 93.796 46.523 95.1454C45.4861 96.4949 44.1381 97.3772 42.479 97.7924C42.3754 97.7924 42.2717 97.8443 42.168 97.9481C42.0643 97.9481 41.9087 97.9481 41.7014 97.9481C40.146 98.571 39.0572 99.5571 38.435 100.907C37.9166 102.152 37.8647 103.502 38.2795 104.955C38.6943 106.304 39.6275 107.55 41.0792 108.692C42.5309 109.73 44.501 110.249 46.9897 110.249C49.582 110.249 51.6558 109.367 53.2112 107.602C54.7666 105.733 56.0109 103.398 56.9441 100.595C57.9811 97.6886 58.7588 94.5226 59.2772 91.0971C59.7957 87.6715 60.2104 84.2979 60.5215 80.9762C60.6252 80.042 60.7289 78.8482 60.8326 77.395C60.9363 75.8379 60.9881 74.2289 60.9881 72.5681C61.0918 70.8034 61.1437 69.0907 61.1437 67.4298C61.2474 65.6651 61.2992 64.0043 61.2992 62.4472C57.9811 66.3917 54.0407 68.2083 49.4783 67.8969C46.7823 67.6893 44.0344 66.8589 41.2347 65.4056C38.5387 63.9524 36.102 61.7725 33.9244 58.866C31.7469 55.8557 29.9841 52.1187 28.6361 47.6551C27.3918 43.1916 26.977 38.0533 27.3918 32.2403C27.8066 27.1539 28.5843 22.7422 29.7249 19.0053C30.9692 15.2683 32.5246 12.1542 34.391 9.66293L34.7021 9.35151C34.7021 9.35151 34.7021 9.29961 34.7021 9.19581C34.8058 8.9882 34.8577 8.8844 34.8577 8.8844C34.9613 8.78059 35.065 8.62488 35.1687 8.41728C36.7241 6.75641 38.3832 5.25126 40.146 3.90181C41.494 2.75996 42.8938 1.87763 44.3455 1.25481C45.9009 0.528178 47.4563 0.112961 49.0117 0.00915892C52.7446 -0.0946436 56.0109 0.683888 58.8106 2.34475C61.6103 3.90181 63.9434 6.02979 65.8098 8.72868C67.6763 11.4276 69.1798 14.4898 70.3204 17.9153C71.4611 21.2371 72.2388 24.7145 72.6535 28.3476ZM49.6338 63.8486C52.0187 64.0562 54.1963 63.3814 56.1664 61.8244C58.2403 60.2673 59.9512 57.3608 61.2992 53.1049C61.2992 50.0945 61.2474 47.0842 61.1437 44.0739C61.04 40.9598 60.9363 38.0533 60.8326 35.3544C60.7289 32.6555 60.5734 30.268 60.366 28.1919C60.2623 26.012 60.1068 24.2474 59.8994 22.8979C59.5883 20.3028 59.2772 17.8634 58.9661 15.5797C58.6551 13.2961 58.1884 11.3238 57.5663 9.66293C57.0478 8.00206 56.2183 6.70451 55.0777 5.77027C53.9371 4.73224 52.3298 4.21322 50.256 4.21322C48.5969 4.21322 47.0934 4.73224 45.7454 5.77027C44.501 6.80831 43.4123 8.41727 42.479 10.5972C41.6495 12.777 40.9237 15.7355 40.3015 19.4724C39.783 23.1055 39.3164 27.5172 38.9017 32.7074C38.4869 38.209 38.5387 42.8802 39.0572 46.7209C39.5757 50.5617 40.3015 53.7796 41.2347 56.3747C42.168 58.9698 43.3604 60.8901 44.8121 62.1358C46.3675 63.2776 47.9747 63.8486 49.6338 63.8486Z" fill="url(#paint1_linear)"/>
<path d="M92.65 57.9317C92.65 66.8589 92.7536 74.5923 92.961 81.1319C93.1684 87.5677 93.635 92.9656 94.3609 97.3253C95.0867 101.581 96.1236 104.747 97.4716 106.823C98.8197 108.899 100.634 109.937 102.916 109.937C105.197 109.937 107.011 108.899 108.359 106.823C109.707 104.747 110.744 101.581 111.47 97.3253C112.196 92.9656 112.663 87.5677 112.87 81.1319C113.181 74.5923 113.337 66.8589 113.337 57.9317C113.337 49.1084 113.233 41.4788 113.026 35.043C112.818 28.5033 112.352 23.1574 111.626 19.0053C110.9 14.7493 109.863 11.5833 108.515 9.50721C107.167 7.43114 105.3 6.3931 102.916 6.3931C100.634 6.3931 98.8197 7.43114 97.4716 9.50721C96.1236 11.5833 95.0867 14.7493 94.3609 19.0053C93.635 23.1574 93.1684 28.5033 92.961 35.043C92.7536 41.4788 92.65 49.1084 92.65 57.9317ZM102.916 2.18904C107.063 2.18904 110.485 3.33088 113.181 5.61457C115.877 7.79446 118.055 11.22 119.714 15.8912C121.373 20.4585 122.513 26.2715 123.136 33.3302C123.861 40.3889 124.224 48.797 124.224 58.5546C124.224 68.3121 123.81 76.6683 122.98 83.6232C122.15 90.5781 120.854 96.2873 119.092 100.751C117.432 105.214 115.255 108.536 112.559 110.716C109.863 112.792 106.648 113.83 102.916 113.83C99.2863 113.83 96.1236 112.792 93.4277 110.716C90.8353 108.64 88.6578 105.422 86.895 101.062C85.236 96.5987 83.9916 90.9414 83.1621 84.0903C82.3326 77.2393 81.9178 68.9868 81.9178 59.3331C81.9178 50.1983 82.2289 42.1016 82.851 35.043C83.5769 27.8805 84.7175 21.8599 86.2729 16.9811C87.932 12.1023 90.1095 8.41728 92.8055 5.92598C95.5015 3.43469 98.8715 2.18904 102.916 2.18904Z" fill="url(#paint2_linear)"/>
<path d="M146.956 104.176C146.956 105.63 147.163 106.72 147.578 107.446C147.993 108.069 148.408 108.432 148.822 108.536C149.445 108.848 150.17 108.848 151 108.536V112.584H130.78V108.536C131.713 108.848 132.646 108.848 133.58 108.536C134.202 108.432 134.824 108.069 135.446 107.446C136.068 106.72 136.379 105.63 136.379 104.176V15.8912C136.379 14.3341 136.068 13.2442 135.446 12.6213C134.824 11.9985 134.202 11.5833 133.58 11.3757C132.646 11.0643 131.713 11.0643 130.78 11.3757V7.48304C132.75 7.37924 134.617 7.06782 136.379 6.5488C137.727 6.02978 138.972 5.40696 140.112 4.68034C141.357 3.84991 141.979 2.75996 141.979 1.41051H146.956V9.81863V104.176Z" fill="url(#paint3_linear)"/>
<defs>
<linearGradient id="paint0_linear" x1="75.5" y1="0" x2="75.5" y2="114" gradientUnits="userSpaceOnUse">
<stop stop-color="#E3FF53"/>
<stop offset="0.716861" stop-color="#ADC62C"/>
</linearGradient>
<linearGradient id="paint1_linear" x1="75.5" y1="0" x2="75.5" y2="114" gradientUnits="userSpaceOnUse">
<stop stop-color="#E3FF53"/>
<stop offset="0.716861" stop-color="#ADC62C"/>
</linearGradient>
<linearGradient id="paint2_linear" x1="75.5" y1="0" x2="75.5" y2="114" gradientUnits="userSpaceOnUse">
<stop stop-color="#E3FF53"/>
<stop offset="0.716861" stop-color="#ADC62C"/>
</linearGradient>
<linearGradient id="paint3_linear" x1="75.5" y1="0" x2="75.5" y2="114" gradientUnits="userSpaceOnUse">
<stop stop-color="#E3FF53"/>
<stop offset="0.716861" stop-color="#ADC62C"/>
</linearGradient>
</defs>
</svg>
