<svg width="127" height="127" viewBox="0 0 127 127" fill="none" xmlns="http://www.w3.org/2000/svg">
<g filter="url(#filter0_d)">
<g filter="url(#filter1_d)">
<mask id="path-1-outside-1" maskUnits="userSpaceOnUse" x="45" y="54" width="49" height="18" fill="black">
<rect fill="white" x="45" y="54" width="49" height="18"/>
<path d="M46 57.1427V55H49.1347V57.1427H46ZM46 70.8595V58.0033H49.1347V70.8595H46Z"/>
<path d="M50.3737 58.0033H53.5084V59.6367C53.6398 59.1098 53.8667 58.6824 54.1891 58.3546C54.5115 58.0267 54.9414 57.8628 55.4788 57.8628C56.3625 57.8628 57.0134 58.1321 57.4313 58.6707C57.8612 59.1976 58.0762 59.9528 58.0762 60.9363V70.8595H54.9952V61.2525C54.9952 60.9715 54.9355 60.7314 54.816 60.5324C54.7086 60.3333 54.5354 60.2338 54.2966 60.2338C53.9741 60.2338 53.7592 60.3802 53.6517 60.6729C53.5562 60.9539 53.5084 61.3344 53.5084 61.8145V70.8595H50.3737V58.0033Z"/>
<path d="M62.9847 71C61.6353 71 60.668 70.637 60.0828 69.9111C59.4977 69.1851 59.2051 68.1021 59.2051 66.6619V61.4984C59.2051 60.3158 59.5514 59.4142 60.244 58.7936C60.9367 58.1731 61.904 57.8628 63.1459 57.8628C65.6657 57.8628 66.9255 59.0746 66.9255 61.4984V62.4292C66.9255 63.3659 66.9136 64.127 66.8897 64.7124H62.3398V67.2064C62.3398 67.6513 62.3876 68.0026 62.4832 68.2602C62.5787 68.506 62.7817 68.629 63.0922 68.629C63.331 68.629 63.4982 68.5587 63.5937 68.4182C63.7012 68.2777 63.7609 68.1196 63.7729 67.944C63.7968 67.7567 63.8087 67.4874 63.8087 67.1361V65.8891H66.9255V66.6268C66.9255 68.1255 66.627 69.232 66.0299 69.9462C65.4447 70.6487 64.4297 71 62.9847 71ZM63.8087 63.1844V61.5335C63.8087 60.6085 63.5758 60.146 63.1101 60.146C62.5847 60.146 62.3219 60.6085 62.3219 61.5335V63.1844H63.8087Z"/>
<path d="M68.0591 55.685H71.2834V59.2678C71.6178 58.3311 72.2566 57.8628 73.2001 57.8628C74.0838 57.8628 74.7525 58.1379 75.2063 58.6883C75.6601 59.2386 75.887 59.9938 75.887 60.9539V70.8595H72.7522V61.1471C72.7522 60.8661 72.6866 60.6378 72.5552 60.4621C72.4238 60.2865 72.2328 60.1987 71.982 60.1987C71.767 60.1987 71.5939 60.2924 71.4625 60.4797C71.3431 60.6553 71.2834 60.8719 71.2834 61.1295V70.8595H68.0591V55.685Z"/>
<path d="M77.085 57.1427V55H80.2198V57.1427H77.085ZM77.085 70.8595V58.0033H80.2198V70.8595H77.085Z"/>
<path d="M85.0592 71C82.4678 71 81.1721 69.712 81.1721 67.1361L81.19 66.1175H84.3247L84.3427 67.6279C84.3427 67.9323 84.4024 68.1665 84.5218 68.3304C84.6412 68.4826 84.8383 68.5587 85.1129 68.5587C85.5309 68.5587 85.7399 68.225 85.7399 67.5576C85.7399 67.0659 85.6384 66.6795 85.4353 66.3985C85.2443 66.1175 84.9338 65.8189 84.5039 65.5027L82.838 64.2382C82.2648 63.805 81.8528 63.36 81.602 62.9034C81.3512 62.4351 81.2258 61.7794 81.2258 60.9363C81.2258 60.2806 81.399 59.7245 81.7453 59.2678C82.1036 58.7995 82.5753 58.4482 83.1604 58.2141C83.7456 57.9799 84.3964 57.8628 85.1129 57.8628C87.6565 57.8628 88.9283 59.1039 88.9283 61.5862V61.8321H85.6861V61.3403C85.6861 61.0359 85.6324 60.7783 85.5249 60.5675C85.4294 60.345 85.2622 60.2338 85.0233 60.2338C84.8084 60.2338 84.6412 60.2982 84.5218 60.427C84.4143 60.5441 84.3606 60.708 84.3606 60.9188C84.3606 61.3871 84.5457 61.7501 84.9159 62.0077L86.8505 63.3952C87.5431 63.8986 88.0745 64.449 88.4447 65.0461C88.8149 65.6315 89 66.375 89 67.2766C89 68.4709 88.6537 69.39 87.9611 70.034C87.2684 70.678 86.3011 71 85.0592 71Z"/>
<path d="M93 68V71H90V68H93Z"/>
</mask>
<path d="M46 57.1427V55H49.1347V57.1427H46ZM46 70.8595V58.0033H49.1347V70.8595H46Z" fill="#ADC62C"/>
<path d="M50.3737 58.0033H53.5084V59.6367C53.6398 59.1098 53.8667 58.6824 54.1891 58.3546C54.5115 58.0267 54.9414 57.8628 55.4788 57.8628C56.3625 57.8628 57.0134 58.1321 57.4313 58.6707C57.8612 59.1976 58.0762 59.9528 58.0762 60.9363V70.8595H54.9952V61.2525C54.9952 60.9715 54.9355 60.7314 54.816 60.5324C54.7086 60.3333 54.5354 60.2338 54.2966 60.2338C53.9741 60.2338 53.7592 60.3802 53.6517 60.6729C53.5562 60.9539 53.5084 61.3344 53.5084 61.8145V70.8595H50.3737V58.0033Z" fill="#ADC62C"/>
<path d="M62.9847 71C61.6353 71 60.668 70.637 60.0828 69.9111C59.4977 69.1851 59.2051 68.1021 59.2051 66.6619V61.4984C59.2051 60.3158 59.5514 59.4142 60.244 58.7936C60.9367 58.1731 61.904 57.8628 63.1459 57.8628C65.6657 57.8628 66.9255 59.0746 66.9255 61.4984V62.4292C66.9255 63.3659 66.9136 64.127 66.8897 64.7124H62.3398V67.2064C62.3398 67.6513 62.3876 68.0026 62.4832 68.2602C62.5787 68.506 62.7817 68.629 63.0922 68.629C63.331 68.629 63.4982 68.5587 63.5937 68.4182C63.7012 68.2777 63.7609 68.1196 63.7729 67.944C63.7968 67.7567 63.8087 67.4874 63.8087 67.1361V65.8891H66.9255V66.6268C66.9255 68.1255 66.627 69.232 66.0299 69.9462C65.4447 70.6487 64.4297 71 62.9847 71ZM63.8087 63.1844V61.5335C63.8087 60.6085 63.5758 60.146 63.1101 60.146C62.5847 60.146 62.3219 60.6085 62.3219 61.5335V63.1844H63.8087Z" fill="#ADC62C"/>
<path d="M68.0591 55.685H71.2834V59.2678C71.6178 58.3311 72.2566 57.8628 73.2001 57.8628C74.0838 57.8628 74.7525 58.1379 75.2063 58.6883C75.6601 59.2386 75.887 59.9938 75.887 60.9539V70.8595H72.7522V61.1471C72.7522 60.8661 72.6866 60.6378 72.5552 60.4621C72.4238 60.2865 72.2328 60.1987 71.982 60.1987C71.767 60.1987 71.5939 60.2924 71.4625 60.4797C71.3431 60.6553 71.2834 60.8719 71.2834 61.1295V70.8595H68.0591V55.685Z" fill="#ADC62C"/>
<path d="M77.085 57.1427V55H80.2198V57.1427H77.085ZM77.085 70.8595V58.0033H80.2198V70.8595H77.085Z" fill="#ADC62C"/>
<path d="M85.0592 71C82.4678 71 81.1721 69.712 81.1721 67.1361L81.19 66.1175H84.3247L84.3427 67.6279C84.3427 67.9323 84.4024 68.1665 84.5218 68.3304C84.6412 68.4826 84.8383 68.5587 85.1129 68.5587C85.5309 68.5587 85.7399 68.225 85.7399 67.5576C85.7399 67.0659 85.6384 66.6795 85.4353 66.3985C85.2443 66.1175 84.9338 65.8189 84.5039 65.5027L82.838 64.2382C82.2648 63.805 81.8528 63.36 81.602 62.9034C81.3512 62.4351 81.2258 61.7794 81.2258 60.9363C81.2258 60.2806 81.399 59.7245 81.7453 59.2678C82.1036 58.7995 82.5753 58.4482 83.1604 58.2141C83.7456 57.9799 84.3964 57.8628 85.1129 57.8628C87.6565 57.8628 88.9283 59.1039 88.9283 61.5862V61.8321H85.6861V61.3403C85.6861 61.0359 85.6324 60.7783 85.5249 60.5675C85.4294 60.345 85.2622 60.2338 85.0233 60.2338C84.8084 60.2338 84.6412 60.2982 84.5218 60.427C84.4143 60.5441 84.3606 60.708 84.3606 60.9188C84.3606 61.3871 84.5457 61.7501 84.9159 62.0077L86.8505 63.3952C87.5431 63.8986 88.0745 64.449 88.4447 65.0461C88.8149 65.6315 89 66.375 89 67.2766C89 68.4709 88.6537 69.39 87.9611 70.034C87.2684 70.678 86.3011 71 85.0592 71Z" fill="#ADC62C"/>
<path d="M93 68V71H90V68H93Z" fill="#ADC62C"/>
<path d="M46 57.1427V55H49.1347V57.1427H46ZM46 70.8595V58.0033H49.1347V70.8595H46Z" stroke="black" stroke-width="2" mask="url(#path-1-outside-1)"/>
<path d="M50.3737 58.0033H53.5084V59.6367C53.6398 59.1098 53.8667 58.6824 54.1891 58.3546C54.5115 58.0267 54.9414 57.8628 55.4788 57.8628C56.3625 57.8628 57.0134 58.1321 57.4313 58.6707C57.8612 59.1976 58.0762 59.9528 58.0762 60.9363V70.8595H54.9952V61.2525C54.9952 60.9715 54.9355 60.7314 54.816 60.5324C54.7086 60.3333 54.5354 60.2338 54.2966 60.2338C53.9741 60.2338 53.7592 60.3802 53.6517 60.6729C53.5562 60.9539 53.5084 61.3344 53.5084 61.8145V70.8595H50.3737V58.0033Z" stroke="black" stroke-width="2" mask="url(#path-1-outside-1)"/>
<path d="M62.9847 71C61.6353 71 60.668 70.637 60.0828 69.9111C59.4977 69.1851 59.2051 68.1021 59.2051 66.6619V61.4984C59.2051 60.3158 59.5514 59.4142 60.244 58.7936C60.9367 58.1731 61.904 57.8628 63.1459 57.8628C65.6657 57.8628 66.9255 59.0746 66.9255 61.4984V62.4292C66.9255 63.3659 66.9136 64.127 66.8897 64.7124H62.3398V67.2064C62.3398 67.6513 62.3876 68.0026 62.4832 68.2602C62.5787 68.506 62.7817 68.629 63.0922 68.629C63.331 68.629 63.4982 68.5587 63.5937 68.4182C63.7012 68.2777 63.7609 68.1196 63.7729 67.944C63.7968 67.7567 63.8087 67.4874 63.8087 67.1361V65.8891H66.9255V66.6268C66.9255 68.1255 66.627 69.232 66.0299 69.9462C65.4447 70.6487 64.4297 71 62.9847 71ZM63.8087 63.1844V61.5335C63.8087 60.6085 63.5758 60.146 63.1101 60.146C62.5847 60.146 62.3219 60.6085 62.3219 61.5335V63.1844H63.8087Z" stroke="black" stroke-width="2" mask="url(#path-1-outside-1)"/>
<path d="M68.0591 55.685H71.2834V59.2678C71.6178 58.3311 72.2566 57.8628 73.2001 57.8628C74.0838 57.8628 74.7525 58.1379 75.2063 58.6883C75.6601 59.2386 75.887 59.9938 75.887 60.9539V70.8595H72.7522V61.1471C72.7522 60.8661 72.6866 60.6378 72.5552 60.4621C72.4238 60.2865 72.2328 60.1987 71.982 60.1987C71.767 60.1987 71.5939 60.2924 71.4625 60.4797C71.3431 60.6553 71.2834 60.8719 71.2834 61.1295V70.8595H68.0591V55.685Z" stroke="black" stroke-width="2" mask="url(#path-1-outside-1)"/>
<path d="M77.085 57.1427V55H80.2198V57.1427H77.085ZM77.085 70.8595V58.0033H80.2198V70.8595H77.085Z" stroke="black" stroke-width="2" mask="url(#path-1-outside-1)"/>
<path d="M85.0592 71C82.4678 71 81.1721 69.712 81.1721 67.1361L81.19 66.1175H84.3247L84.3427 67.6279C84.3427 67.9323 84.4024 68.1665 84.5218 68.3304C84.6412 68.4826 84.8383 68.5587 85.1129 68.5587C85.5309 68.5587 85.7399 68.225 85.7399 67.5576C85.7399 67.0659 85.6384 66.6795 85.4353 66.3985C85.2443 66.1175 84.9338 65.8189 84.5039 65.5027L82.838 64.2382C82.2648 63.805 81.8528 63.36 81.602 62.9034C81.3512 62.4351 81.2258 61.7794 81.2258 60.9363C81.2258 60.2806 81.399 59.7245 81.7453 59.2678C82.1036 58.7995 82.5753 58.4482 83.1604 58.2141C83.7456 57.9799 84.3964 57.8628 85.1129 57.8628C87.6565 57.8628 88.9283 59.1039 88.9283 61.5862V61.8321H85.6861V61.3403C85.6861 61.0359 85.6324 60.7783 85.5249 60.5675C85.4294 60.345 85.2622 60.2338 85.0233 60.2338C84.8084 60.2338 84.6412 60.2982 84.5218 60.427C84.4143 60.5441 84.3606 60.708 84.3606 60.9188C84.3606 61.3871 84.5457 61.7501 84.9159 62.0077L86.8505 63.3952C87.5431 63.8986 88.0745 64.449 88.4447 65.0461C88.8149 65.6315 89 66.375 89 67.2766C89 68.4709 88.6537 69.39 87.9611 70.034C87.2684 70.678 86.3011 71 85.0592 71Z" stroke="black" stroke-width="2" mask="url(#path-1-outside-1)"/>
<path d="M93 68V71H90V68H93Z" stroke="black" stroke-width="2" mask="url(#path-1-outside-1)"/>
</g>
<path d="M34.6458 71L33 56H36.0053L36.864 65.4645L37.7227 56H40.5849L41.4078 65.4645L42.2307 56H45.2718L43.5902 71H39.9051L39.1359 63.7707L38.4024 71H34.6458Z" fill="white"/>
</g>
<defs>
<filter id="filter0_d" x="29" y="54" width="69" height="26" filterUnits="userSpaceOnUse" color-interpolation-filters="sRGB">
<feFlood flood-opacity="0" result="BackgroundImageFix"/>
<feColorMatrix in="SourceAlpha" type="matrix" values="0 0 0 0 0 0 0 0 0 0 0 0 0 0 0 0 0 0 127 0"/>
<feOffset dy="4"/>
<feGaussianBlur stdDeviation="2"/>
<feColorMatrix type="matrix" values="0 0 0 0 0 0 0 0 0 0 0 0 0 0 0 0 0 0 0.25 0"/>
<feBlend mode="normal" in2="BackgroundImageFix" result="effect1_dropShadow"/>
<feBlend mode="normal" in="SourceGraphic" in2="effect1_dropShadow" result="shape"/>
</filter>
<filter id="filter1_d" x="41" y="54" width="57" height="26" filterUnits="userSpaceOnUse" color-interpolation-filters="sRGB">
<feFlood flood-opacity="0" result="BackgroundImageFix"/>
<feColorMatrix in="SourceAlpha" type="matrix" values="0 0 0 0 0 0 0 0 0 0 0 0 0 0 0 0 0 0 127 0"/>
<feOffset dy="4"/>
<feGaussianBlur stdDeviation="2"/>
<feColorMatrix type="matrix" values="0 0 0 0 0 0 0 0 0 0 0 0 0 0 0 0 0 0 0.25 0"/>
<feBlend mode="normal" in2="BackgroundImageFix" result="effect1_dropShadow"/>
<feBlend mode="normal" in="SourceGraphic" in2="effect1_dropShadow" result="shape"/>
</filter>
</defs>
</svg>
